<svg width="36" height="35" viewBox="0 0 36 35" fill="none" xmlns="http://www.w3.org/2000/svg">
<rect x="0.45" y="0.45" width="35.093" height="34.0697" rx="17.0349" fill="white"/>
<rect x="0.45" y="0.45" width="35.093" height="34.0697" rx="17.0349" stroke="#E2E2E2" stroke-width="0.9"/>
<path d="M25.5114 14.7156L25.1818 14.5322C25.1307 14.5038 25.1055 14.4895 25.0808 14.4747C24.835 14.3274 24.6278 14.124 24.4767 13.8807C24.4614 13.8562 24.4471 13.8305 24.4178 13.7797C24.3885 13.7291 24.3737 13.7034 24.3601 13.6779C24.2245 13.4248 24.1511 13.1426 24.1467 12.8554C24.1463 12.8265 24.1464 12.797 24.1474 12.7384L24.1538 12.3557C24.1641 11.7432 24.1693 11.436 24.0832 11.1603C24.0068 10.9154 23.8789 10.6899 23.708 10.4985C23.515 10.2821 23.2477 10.1278 22.7127 9.81945L22.2683 9.56334C21.7347 9.25588 21.4678 9.1021 21.1846 9.04347C20.934 8.99161 20.6754 8.99401 20.4257 9.05006C20.1438 9.11333 19.8803 9.27112 19.3536 9.58652L19.3506 9.58795L19.0321 9.77863C18.9818 9.80878 18.9563 9.82398 18.9311 9.83801C18.6806 9.97725 18.401 10.0542 18.1146 10.0634C18.0857 10.0644 18.0564 10.0644 17.9977 10.0644C17.9393 10.0644 17.9087 10.0644 17.8799 10.0634C17.5929 10.0542 17.3127 9.9768 17.0618 9.83697C17.0366 9.82288 17.0116 9.80756 16.9611 9.77727L16.6406 9.58488C16.1103 9.26649 15.8447 9.10705 15.5613 9.04347C15.3106 8.98722 15.0511 8.98566 14.7996 9.0382C14.5156 9.09752 14.2487 9.25244 13.7148 9.56229L13.7124 9.56334L13.2735 9.81808L13.2687 9.82105C12.7396 10.1281 12.4745 10.282 12.283 10.4975C12.1131 10.6887 11.9861 10.9139 11.9101 11.1581C11.8242 11.4342 11.8288 11.742 11.8392 12.3574L11.8456 12.7396C11.8466 12.7975 11.8483 12.8262 11.8478 12.8547C11.8436 13.1425 11.7693 13.4252 11.6333 13.6788C11.6198 13.7039 11.6053 13.729 11.5764 13.7791C11.5474 13.8292 11.5334 13.8542 11.5184 13.8784C11.3665 14.123 11.1584 14.3276 10.9111 14.4751C10.8866 14.4897 10.8608 14.5037 10.8102 14.5318L10.4848 14.7121C9.94336 15.0122 9.67272 15.1623 9.47578 15.376C9.30157 15.565 9.16996 15.7892 9.08963 16.0334C8.99881 16.3094 8.99889 16.619 9.0003 17.238L9.00145 17.7439C9.00284 18.3587 9.00476 18.6659 9.09577 18.9401C9.17629 19.1826 9.30694 19.4055 9.48018 19.5934C9.676 19.8058 9.94395 19.955 10.4813 20.2539L10.8038 20.4333C10.8586 20.4639 10.8863 20.4789 10.9127 20.4949C11.1578 20.6425 11.3643 20.8465 11.5148 21.0898C11.5311 21.116 11.5467 21.1433 11.578 21.1979C11.6088 21.2517 11.6246 21.2787 11.6388 21.3057C11.7708 21.5556 11.8415 21.8333 11.8463 22.1159C11.8468 22.1464 11.8464 22.1773 11.8454 22.2394L11.8392 22.6061C11.8287 23.2236 11.8242 23.5327 11.9106 23.8095C11.9871 24.0544 12.1148 24.2799 12.2856 24.4714C12.4787 24.6877 12.7464 24.842 13.2814 25.1503L13.7258 25.4064C14.2594 25.7138 14.526 25.8674 14.8093 25.9261C15.0599 25.9779 15.3187 25.9759 15.5684 25.9198C15.8506 25.8565 16.115 25.6981 16.6433 25.3819L16.9617 25.1912C17.0121 25.161 17.0376 25.1459 17.0628 25.1319C17.3133 24.9926 17.5926 24.9152 17.879 24.906C17.9079 24.9051 17.9372 24.9051 17.9959 24.9051C18.0548 24.9051 18.0841 24.9051 18.1131 24.906C18.4001 24.9153 18.6811 24.9929 18.9319 25.1327C18.954 25.145 18.9761 25.1583 19.015 25.1816L19.3535 25.3849C19.8839 25.7033 20.1489 25.8623 20.4323 25.9259C20.683 25.9821 20.9427 25.9844 21.1942 25.9319C21.4782 25.8726 21.7456 25.7173 22.2792 25.4077L22.7247 25.1491C23.2541 24.8418 23.5195 24.6878 23.7111 24.4722C23.8809 24.281 24.0081 24.0559 24.0841 23.8117C24.1694 23.5376 24.1642 23.2322 24.154 22.6257L24.1474 22.2301C24.1464 22.1723 24.1463 22.1435 24.1467 22.115C24.151 21.8272 24.2241 21.5443 24.3601 21.2907C24.3735 21.2656 24.3881 21.2403 24.4169 21.1904C24.4459 21.1403 24.4609 21.1153 24.4759 21.0911C24.6278 20.8464 24.8361 20.6416 25.0834 20.4942C25.1076 20.4797 25.1325 20.466 25.1819 20.4386L25.1836 20.4378L25.509 20.2574C26.0504 19.9574 26.3216 19.8071 26.5185 19.5934C26.6927 19.4044 26.8242 19.1805 26.9045 18.9363C26.9948 18.6619 26.9941 18.3542 26.9927 17.7424L26.9915 17.2256C26.9901 16.6108 26.9894 16.3036 26.8983 16.0295C26.8178 15.7869 26.6864 15.564 26.5132 15.3761C26.3176 15.164 26.0493 15.0147 25.513 14.7164L25.5114 14.7156Z" stroke="#474747" stroke-width="1.8" stroke-linecap="round" stroke-linejoin="round"/>
<path d="M14.3968 17.4849C14.3968 19.4732 16.0086 21.0849 17.9968 21.0849C19.985 21.0849 21.5968 19.4732 21.5968 17.4849C21.5968 15.4967 19.985 13.8849 17.9968 13.8849C16.0086 13.8849 14.3968 15.4967 14.3968 17.4849Z" stroke="#474747" stroke-width="1.8" stroke-linecap="round" stroke-linejoin="round"/>
</svg>
