<svg width="152" height="22" viewBox="0 0 152 22" fill="none" xmlns="http://www.w3.org/2000/svg">
<path d="M5.28 16.96H5.46C6.54 16.96 6.96 17.8 6.96 18.56C6.96 19.32 6.54 20.22 5.46 20.22H5C2 20.22 0.0200001 18.4 0.0200001 14.52V5.74C0.0200001 1.86 2 0.0399988 5 0.0399988H5.46C6.54 0.0399988 6.96 0.939999 6.96 1.7C6.96 2.46 6.54 3.3 5.46 3.3H5.28C4.58 3.3 3.6 3.96 3.6 5.56V14.72C3.6 16.3 4.58 16.96 5.28 16.96ZM13.4695 16.96H13.6495C14.3495 16.96 15.3295 16.3 15.3295 14.72V5.56C15.3295 3.96 14.3495 3.3 13.6495 3.3H13.4695C12.3895 3.3 11.9695 2.46 11.9695 1.7C11.9695 0.939999 12.3895 0.0399988 13.4695 0.0399988H13.9295C16.9295 0.0399988 18.9095 1.86 18.9095 5.74V14.52C18.9095 18.4 16.9295 20.22 13.9295 20.22H13.4695C12.3895 20.22 11.9695 19.32 11.9695 18.56C11.9695 17.8 12.3895 16.96 13.4695 16.96ZM21.3336 20.4C21.7736 20.16 22.0536 19.7 22.0536 19.12V19.1C20.9336 19 20.2136 18.3 20.2136 17.16C20.2136 15.94 21.0736 15.18 22.3336 15.18C23.5936 15.18 24.4536 16.06 24.4536 17.26V17.44C24.4536 19.76 23.4736 21.2 22.0736 21.74C21.7336 21.86 21.3736 21.94 21.0536 21.9C20.7136 21.86 20.3136 21.68 20.3536 21.14C20.3736 20.82 20.5536 20.62 20.9136 20.54C21.0536 20.5 21.1736 20.48 21.3336 20.4ZM48.0398 7.74H48.7598C49.9798 7.74 50.3398 8.68 50.3398 9.48C50.3398 10.3 49.9598 11.22 48.7598 11.22H48.0398V19.52H44.0398V2.72C44.0398 1.42 44.9798 0.739999 46.0398 0.739999C47.0998 0.739999 48.0398 1.42 48.0398 2.72V7.74ZM35.6398 15.38H41.4598C42.6198 15.38 42.9598 16.3 42.9598 17.06C42.9598 17.84 42.5998 18.72 41.4598 18.72H34.1798C31.5798 18.72 31.0998 18.1 31.0998 15.6V4.54C31.0998 2.04 31.5798 1.44 34.1798 1.44H40.4998C41.6598 1.44 42.0398 2.36 42.0398 3.12C42.0398 3.9 41.6398 4.82 40.4998 4.82H35.6398C35.2798 4.82 35.1198 4.94 35.1198 5.4V14.8C35.1198 15.26 35.2798 15.38 35.6398 15.38ZM66.1398 0.739999C67.1998 0.739999 68.1398 1.42 68.1398 2.72V19.52H64.1398V13.12H60.5998C59.5398 13.12 58.8598 12.48 58.8598 11.48C58.8598 10.5 59.5198 9.8 60.5998 9.8H64.1398V7.52H60.5998C59.5398 7.52 58.8598 6.88 58.8598 5.88C58.8598 4.9 59.5198 4.2 60.5998 4.2H64.1398V2.72C64.1398 1.42 65.0798 0.739999 66.1398 0.739999ZM55.2198 15.14H61.7598C62.9198 15.14 63.2598 16.04 63.2598 16.8C63.2598 17.58 62.8998 18.52 61.7598 18.52H53.6798C51.2998 18.52 50.6198 17.68 50.6198 15.4V3.48C50.6198 2.14 51.5798 1.54 52.6598 1.54C53.7598 1.54 54.6398 2.16 54.6398 3.48V14.58C54.6398 15.04 54.7598 15.14 55.2198 15.14ZM87.1398 4.44H87.7598C88.9798 4.44 89.3398 5.38 89.3398 6.18C89.3398 7 88.9598 7.92 87.7598 7.92H87.1398V12.02H83.2398V2.66C83.2398 1.42 84.1398 0.739999 85.1998 0.739999C86.2598 0.739999 87.1398 1.42 87.1398 2.66V4.44ZM80.9798 11.86H71.0398C69.9798 11.86 69.4798 11.28 69.4798 10.44C69.4798 9.62 69.9598 8.98 71.0398 8.98H73.8598V8.24H73.6198C71.2398 8.24 69.8998 6.76 69.8998 4.74V4.68C69.8998 2.66 71.2398 1.18 73.6198 1.18H78.1198C80.4998 1.18 81.7998 2.66 81.7998 4.68V4.74C81.7998 6.76 80.4998 8.24 78.1198 8.24H77.6398V8.98H80.9798C82.0598 8.98 82.5398 9.62 82.5398 10.44C82.5398 11.28 82.0398 11.86 80.9798 11.86ZM73.6798 4.68V4.74C73.6798 5.26 74.0198 5.58 74.6798 5.58H77.0598C77.6998 5.58 78.0198 5.26 78.0198 4.74V4.68C78.0198 4.18 77.6998 3.84 77.0598 3.84H74.6798C74.0198 3.84 73.6798 4.18 73.6798 4.68ZM84.6998 14.54C87.0198 14.92 88.2798 16.7 88.1398 19.52H84.4998C84.6198 18.5 84.4198 17.7 83.7398 17.32C82.6998 18.88 81.0198 19.96 79.3398 20C78.2398 20.02 77.5398 19.58 77.3998 18.9C77.3398 18.62 77.3398 18.36 77.3998 18.14C77.2198 17.56 76.8998 17.24 76.3398 17.16C75.3398 18.7 73.6398 19.74 71.9598 19.76C70.9198 19.78 70.1998 19.3 70.0798 18.56C69.9198 17.68 70.3798 16.98 71.2798 16.82C72.6998 16.54 73.3198 15.52 73.3998 14C73.4798 12.8 74.3798 12.36 75.3798 12.38C76.3998 12.4 77.2398 12.94 77.2398 14.14V14.42C78.5798 14.48 79.5598 15.06 80.2598 16.3C80.6798 15.78 80.8598 15.04 80.8798 14.08C80.8998 12.86 81.8598 12.36 82.8598 12.38C83.8798 12.4 84.7198 12.94 84.7198 14.14C84.7198 14.28 84.7198 14.4 84.6998 14.54ZM91.2798 7.98C90.0598 7.92 89.4798 7.22 89.4598 6.34C89.4398 5.44 90.1198 4.74 91.2398 4.74C93.6998 4.76 95.7798 3.6 96.2598 2.04C96.5198 1.14 97.2398 0.599999 98.3198 0.599999C99.4398 0.599999 100.32 1.24 100.3 2.6V2.8C103.56 2.62 106.46 4.22 107.18 7.9H103.12C102.44 6.28 100.8 5.42 98.5798 5.7C96.8598 7.16 94.0398 8.12 91.2798 7.98ZM90.5398 8.54H106.14C107.22 8.54 107.7 9.16 107.7 9.98C107.7 10.82 107.2 11.42 106.14 11.42H90.5398C89.4798 11.42 88.9798 10.82 88.9798 9.98C88.9798 9.16 89.4598 8.54 90.5398 8.54ZM104.78 12.06C105.8 12.06 106.8 12.5 106.8 13.78V19.52H92.7398C90.3198 19.52 89.8798 18.8 89.8798 16.48V13.78C89.8798 12.48 90.8598 12.06 91.9198 12.06C92.8198 12.06 93.7198 12.46 93.8798 13.48H102.8C102.94 12.42 103.8 12.06 104.78 12.06ZM94.5198 16.96H102.78V15.9H93.8998V16.34C93.8998 16.74 94.0398 16.96 94.5198 16.96ZM126.64 19.52H122.64V2.72C122.64 1.42 123.58 0.739999 124.64 0.739999C125.7 0.739999 126.64 1.42 126.64 2.72V19.52ZM113.7 15.14H119.86C121.02 15.14 121.36 16.04 121.36 16.8C121.36 17.58 121 18.52 119.86 18.52H112.16C109.8 18.52 109.12 17.68 109.12 15.42V3.48C109.12 2.14 110.08 1.54 111.16 1.54C112.26 1.54 113.12 2.16 113.12 3.48V14.58C113.12 15.04 113.24 15.14 113.7 15.14ZM145.54 7.74H146.26C147.48 7.74 147.84 8.68 147.84 9.48C147.84 10.3 147.46 11.22 146.26 11.22H145.54V19.52H141.54V2.72C141.54 1.42 142.48 0.739999 143.54 0.739999C144.6 0.739999 145.54 1.42 145.54 2.72V7.74ZM133.14 15.38H138.96C140.12 15.38 140.46 16.3 140.46 17.06C140.46 17.84 140.1 18.72 138.96 18.72H131.68C129.08 18.72 128.6 18.1 128.6 15.6V4.54C128.6 2.04 129.08 1.44 131.68 1.44H138C139.16 1.44 139.54 2.36 139.54 3.12C139.54 3.9 139.14 4.82 138 4.82H133.14C132.78 4.82 132.62 4.94 132.62 5.4V14.8C132.62 15.26 132.78 15.38 133.14 15.38ZM147.62 17.2C147.62 15.96 148.42 15.18 149.76 15.18C151.1 15.18 151.9 15.98 151.9 17.2C151.9 18.42 151.1 19.22 149.76 19.22C148.42 19.22 147.62 18.44 147.62 17.2Z" fill="#1D1D1D"/>
</svg>
